# 3ds Max Wavefront OBJ Exporter v0.97b - (c)2007 guruware
# 创建的文件:16.08.2017 11:19:45

mtllib IKE160248.mtl

#
# object Line001
#

v  -384.97977 0.00000 45.62930
v  -384.97977 0.00000 -71.34905
v  -384.97977 960.00000 -71.34905
v  -384.97977 960.00000 45.62930
v  385.02020 0.00000 -71.34905
v  385.02020 960.00000 -71.34905
v  385.02020 0.00000 45.62930
v  385.02020 960.00000 45.62930
v  400.02020 0.00000 45.62931
v  400.02020 960.00000 45.62931
v  400.02020 0.00000 -86.34904
v  400.02020 960.00000 -86.34904
v  -399.97980 0.00000 -86.34904
v  -399.97980 960.00000 -86.34904
v  -399.97980 0.00000 45.62931
v  -399.97980 960.00000 45.62931
# 16 vertices

vn 1.00000 0.00000 -0.00000
vn 0.00000 0.00000 1.00000
vn -1.00000 0.00000 -0.00000
vn -0.00000 0.00000 1.00000
vn 0.00000 0.00000 -1.00000
vn 0.00000 -1.00000 -0.00000
vn 0.00000 1.00000 -0.00000
# 7 vertex normals

g Line001
usemtl 01___Default
s 1
f 1//1 2//1 3//1 4//1 
s 4
f 2//2 5//2 6//2 3//2 
s 2
f 5//3 7//3 8//3 6//3 
s 4
f 7//4 9//4 10//4 8//4 
s 2
f 9//1 11//1 12//1 10//1 
s 4
f 11//5 13//5 14//5 12//5 
s 2
f 13//3 15//3 16//3 14//3 
s 4
f 15//2 1//2 4//2 16//2 
s 16
f 13//6 2//6 1//6 15//6 
f 11//6 5//6 2//6 13//6 
f 9//6 7//6 5//6 11//6 
f 14//7 16//7 4//7 3//7 
f 12//7 14//7 3//7 6//7 
f 10//7 12//7 6//7 8//7 
# 14 polygons

#
# object Box001
#

v  -384.97980 940.00000 45.62930
v  -384.97980 940.00000 -71.34905
v  385.02020 940.00000 -71.34905
v  385.02020 940.00000 45.62930
v  -384.97980 960.00000 45.62930
v  385.02020 960.00000 45.62930
v  385.02020 960.00000 -71.34905
v  -384.97980 960.00000 -71.34905
# 8 vertices

vn 0.00000 -1.00000 -0.00000
vn 0.00000 1.00000 -0.00000
vn 0.00000 0.00000 1.00000
vn 1.00000 0.00000 -0.00000
vn 0.00000 0.00000 -1.00000
vn -1.00000 0.00000 -0.00000
# 6 vertex normals

vt 770.00000 0.00000 0.00000
vt 770.00000 116.97836 0.00000
vt 0.00000 116.97836 0.00000
vt 0.00000 0.00000 0.00000
vt 770.00000 20.00000 0.00000
vt 0.00000 20.00000 0.00000
vt 116.97836 0.00000 0.00000
vt 116.97836 20.00000 0.00000
# 8 texture coords

g Box001
usemtl 01___Default
s 2
f 17/1/8 18/2/8 19/3/8 20/4/8 
s 4
f 21/4/9 22/1/9 23/2/9 24/3/9 
s 8
f 17/4/10 20/1/10 22/5/10 21/6/10 
s 16
f 20/4/11 19/7/11 23/8/11 22/6/11 
s 32
f 19/4/12 18/1/12 24/5/12 23/6/12 
s 64
f 18/4/13 17/7/13 21/8/13 24/6/13 
# 6 polygons

#
# object Arc002
#

v  -0.96320 0.00000 45.62931
v  -399.97922 0.00000 45.62931
v  -399.97922 960.00000 45.62931
v  -0.96320 960.00000 45.62931
v  -399.97922 0.00000 50.65099
v  -399.97922 960.00000 50.65099
v  -399.97079 0.00000 50.87596
v  -399.97079 960.00000 50.87596
v  -399.94562 0.00000 51.09889
v  -399.94562 960.00000 51.09889
v  -399.90390 0.00000 51.31886
v  -399.90390 960.00000 51.31886
v  -399.84601 0.00000 51.53497
v  -399.84601 960.00000 51.53497
v  -399.77209 0.00000 51.74631
v  -399.77209 960.00000 51.74631
v  -399.68246 0.00000 51.95196
v  -399.68246 960.00000 51.95196
v  -399.57727 0.00000 52.15102
v  -399.57727 960.00000 52.15102
v  -399.45752 0.00000 52.34162
v  -399.45752 960.00000 52.34162
v  -399.32425 0.00000 52.52209
v  -399.32425 960.00000 52.52209
v  -399.17813 0.00000 52.69176
v  -399.17813 960.00000 52.69176
v  -399.01990 0.00000 52.84996
v  -399.01990 960.00000 52.84996
v  -398.85025 0.00000 52.99603
v  -398.85025 960.00000 52.99603
v  -398.66980 0.00000 53.12929
v  -398.66980 960.00000 53.12929
v  -398.47919 0.00000 53.24908
v  -398.47919 960.00000 53.24908
v  -398.28012 0.00000 53.35425
v  -398.28012 960.00000 53.35425
v  -398.07449 0.00000 53.44390
v  -398.07449 960.00000 53.44390
v  -397.86313 0.00000 53.51780
v  -397.86313 960.00000 53.51780
v  -397.64703 0.00000 53.57570
v  -397.64703 960.00000 53.57570
v  -397.42706 0.00000 53.61736
v  -397.42706 960.00000 53.61736
v  -397.20416 0.00000 53.64253
v  -397.20416 960.00000 53.64253
v  -396.97916 0.00000 53.65097
v  -396.97916 960.00000 53.65097
v  -3.96320 0.00000 53.65096
v  -3.96320 960.00000 53.65096
v  -3.73823 0.00000 53.64251
v  -3.73823 960.00000 53.64251
v  -3.51531 0.00000 53.61734
v  -3.51531 960.00000 53.61734
v  -3.29533 0.00000 53.57567
v  -3.29533 960.00000 53.57567
v  -3.07923 0.00000 53.51777
v  -3.07923 960.00000 53.51777
v  -2.86789 0.00000 53.44386
v  -2.86789 960.00000 53.44386
v  -2.66225 0.00000 53.35420
v  -2.66225 960.00000 53.35420
v  -2.46319 0.00000 53.24903
v  -2.46319 960.00000 53.24903
v  -2.27259 0.00000 53.12923
v  -2.27259 960.00000 53.12923
v  -2.09212 0.00000 52.99596
v  -2.09212 960.00000 52.99596
v  -1.92245 0.00000 52.84990
v  -1.92245 960.00000 52.84990
v  -1.76425 0.00000 52.69170
v  -1.76425 960.00000 52.69170
v  -1.61818 0.00000 52.52203
v  -1.61818 960.00000 52.52203
v  -1.48491 0.00000 52.34156
v  -1.48491 960.00000 52.34156
v  -1.36511 0.00000 52.15095
v  -1.36511 960.00000 52.15095
v  -1.25994 0.00000 51.95190
v  -1.25994 960.00000 51.95190
v  -1.17028 0.00000 51.74625
v  -1.17028 960.00000 51.74625
v  -1.09638 0.00000 51.53492
v  -1.09638 960.00000 51.53492
v  -1.03848 0.00000 51.31882
v  -1.03848 960.00000 51.31882
v  -0.99682 0.00000 51.09885
v  -0.99682 960.00000 51.09885
v  -0.97164 0.00000 50.87592
v  -0.97164 960.00000 50.87592
v  -0.96319 0.00000 50.65096
v  -0.96319 960.00000 50.65096
# 92 vertices

vn 0.00000 0.00000 -1.00000
vn -1.00000 0.00000 -0.00000
vn -0.99930 0.00000 0.03741
vn -0.99719 0.00000 0.07487
vn -0.98878 0.00000 0.14938
vn -0.97489 0.00000 0.22269
vn -0.95560 0.00000 0.29465
vn -0.93097 0.00000 0.36509
vn -0.90106 0.00000 0.43369
vn -0.86605 0.00000 0.49996
vn -0.82618 0.00000 0.56341
vn -0.78163 0.00000 0.62374
vn -0.73289 0.00000 0.68035
vn -0.68022 0.00000 0.73301
vn -0.62370 0.00000 0.78166
vn -0.56349 0.00000 0.82612
vn -0.49997 0.00000 0.86604
vn -0.43370 0.00000 0.90106
vn -0.36511 0.00000 0.93097
vn -0.29462 0.00000 0.95561
vn -0.22259 0.00000 0.97491
vn -0.14924 0.00000 0.98880
vn -0.07490 0.00000 0.99719
vn -0.03748 0.00000 0.99930
vn 0.00000 0.00000 1.00000
vn 0.03752 0.00000 0.99930
vn 0.07492 0.00000 0.99719
vn 0.14926 0.00000 0.98880
vn 0.22261 0.00000 0.97491
vn 0.29467 0.00000 0.95560
vn 0.36513 0.00000 0.93096
vn 0.43371 0.00000 0.90105
vn 0.50000 0.00000 0.86603
vn 0.56348 0.00000 0.82613
vn 0.62367 0.00000 0.78169
vn 0.68024 0.00000 0.73299
vn 0.73299 0.00000 0.68024
vn 0.78169 0.00000 0.62366
vn 0.82613 0.00000 0.56348
vn 0.86603 0.00000 0.50000
vn 0.90105 0.00000 0.43371
vn 0.93096 0.00000 0.36513
vn 0.95560 0.00000 0.29466
vn 0.97491 0.00000 0.22261
vn 0.98880 0.00000 0.14926
vn 0.99719 0.00000 0.07492
vn 0.99930 0.00000 0.03752
vn 1.00000 0.00000 -0.00000
vn 0.00000 -1.00000 -0.00000
vn 0.00000 1.00000 -0.00000
# 50 vertex normals

g Arc002
usemtl 01___Default
s 1
f 25//14 26//14 27//14 28//14 
s 4
f 26//15 29//15 30//15 27//15 
s 2
f 29//16 31//17 32//17 30//16 
f 31//17 33//18 34//18 32//17 
f 33//18 35//19 36//19 34//18 
f 35//19 37//20 38//20 36//19 
f 37//20 39//21 40//21 38//20 
f 39//21 41//22 42//22 40//21 
f 41//22 43//23 44//23 42//22 
f 43//23 45//24 46//24 44//23 
f 45//24 47//25 48//25 46//24 
f 47//25 49//26 50//26 48//25 
f 49//26 51//27 52//27 50//26 
f 51//27 53//28 54//28 52//27 
f 53//28 55//29 56//29 54//28 
f 55//29 57//30 58//30 56//29 
f 57//30 59//31 60//31 58//30 
f 59//31 61//32 62//32 60//31 
f 61//32 63//33 64//33 62//32 
f 63//33 65//34 66//34 64//33 
f 65//34 67//35 68//35 66//34 
f 67//35 69//36 70//36 68//35 
f 69//36 71//37 72//37 70//36 
s 4
f 71//38 73//38 74//38 72//38 
s 2
f 73//39 75//40 76//40 74//39 
f 75//40 77//41 78//41 76//40 
f 77//41 79//42 80//42 78//41 
f 79//42 81//43 82//43 80//42 
f 81//43 83//44 84//44 82//43 
f 83//44 85//45 86//45 84//44 
f 85//45 87//46 88//46 86//45 
f 87//46 89//47 90//47 88//46 
f 89//47 91//48 92//48 90//47 
f 91//48 93//49 94//49 92//48 
f 93//49 95//50 96//50 94//49 
f 95//50 97//51 98//51 96//50 
f 97//51 99//52 100//52 98//51 
f 99//52 101//53 102//53 100//52 
f 101//53 103//54 104//54 102//53 
f 103//54 105//55 106//55 104//54 
f 105//55 107//56 108//56 106//55 
f 107//56 109//57 110//57 108//56 
f 109//57 111//58 112//58 110//57 
f 111//58 113//59 114//59 112//58 
f 113//59 115//60 116//60 114//59 
s 4
f 115//61 25//61 28//61 116//61 
s 16
f 25//62 31//62 29//62 26//62 
f 25//62 35//62 33//62 31//62 
f 25//62 39//62 37//62 35//62 
f 25//62 43//62 41//62 39//62 
f 25//62 47//62 45//62 43//62 
f 25//62 51//62 49//62 47//62 
f 25//62 55//62 53//62 51//62 
f 25//62 59//62 57//62 55//62 
f 25//62 63//62 61//62 59//62 
f 25//62 67//62 65//62 63//62 
f 25//62 71//62 69//62 67//62 
f 25//62 115//62 73//62 71//62 
f 115//62 113//62 75//62 73//62 
f 113//62 111//62 77//62 75//62 
f 111//62 109//62 79//62 77//62 
f 109//62 83//62 81//62 79//62 
f 109//62 87//62 85//62 83//62 
f 109//62 91//62 89//62 87//62 
f 109//62 95//62 93//62 91//62 
f 109//62 99//62 97//62 95//62 
f 109//62 103//62 101//62 99//62 
f 109//62 107//62 105//62 103//62 
f 28//63 27//63 30//63 32//63 
f 28//63 32//63 34//63 36//63 
f 28//63 36//63 38//63 40//63 
f 28//63 40//63 42//63 44//63 
f 28//63 44//63 46//63 48//63 
f 28//63 48//63 50//63 52//63 
f 28//63 52//63 54//63 56//63 
f 28//63 56//63 58//63 60//63 
f 28//63 60//63 62//63 64//63 
f 28//63 64//63 66//63 68//63 
f 28//63 68//63 70//63 72//63 
f 28//63 72//63 74//63 116//63 
f 116//63 74//63 76//63 114//63 
f 114//63 76//63 78//63 112//63 
f 112//63 78//63 80//63 110//63 
f 110//63 80//63 82//63 84//63 
f 110//63 84//63 86//63 88//63 
f 110//63 88//63 90//63 92//63 
f 110//63 92//63 94//63 96//63 
f 110//63 96//63 98//63 100//63 
f 110//63 100//63 102//63 104//63 
f 110//63 104//63 106//63 108//63 
# 90 polygons

#
# object Arc003
#

v  400.02017 0.00000 45.62931
v  1.00415 0.00000 45.62931
v  1.00415 960.00000 45.62931
v  400.02017 960.00000 45.62931
v  1.00415 0.00000 50.65099
v  1.00415 960.00000 50.65099
v  1.01257 0.00000 50.87596
v  1.01257 960.00000 50.87596
v  1.03775 0.00000 51.09889
v  1.03775 960.00000 51.09889
v  1.07947 0.00000 51.31886
v  1.07947 960.00000 51.31886
v  1.13736 0.00000 51.53497
v  1.13736 960.00000 51.53497
v  1.21127 0.00000 51.74631
v  1.21127 960.00000 51.74631
v  1.30090 0.00000 51.95196
v  1.30090 960.00000 51.95196
v  1.40610 0.00000 52.15102
v  1.40610 960.00000 52.15102
v  1.52585 0.00000 52.34162
v  1.52585 960.00000 52.34162
v  1.65912 0.00000 52.52209
v  1.65912 960.00000 52.52209
v  1.80524 0.00000 52.69176
v  1.80524 960.00000 52.69176
v  1.96347 0.00000 52.84996
v  1.96347 960.00000 52.84996
v  2.13312 0.00000 52.99603
v  2.13312 960.00000 52.99603
v  2.31357 0.00000 53.12929
v  2.31357 960.00000 53.12929
v  2.50418 0.00000 53.24908
v  2.50418 960.00000 53.24908
v  2.70325 0.00000 53.35425
v  2.70325 960.00000 53.35425
v  2.90887 0.00000 53.44390
v  2.90887 960.00000 53.44390
v  3.12024 0.00000 53.51780
v  3.12024 960.00000 53.51780
v  3.33633 0.00000 53.57570
v  3.33633 960.00000 53.57570
v  3.55630 0.00000 53.61736
v  3.55630 960.00000 53.61736
v  3.77921 0.00000 53.64253
v  3.77921 960.00000 53.64253
v  4.00421 0.00000 53.65097
v  4.00421 960.00000 53.65097
v  397.02017 0.00000 53.65096
v  397.02017 960.00000 53.65096
v  397.24515 0.00000 53.64251
v  397.24515 960.00000 53.64251
v  397.46808 0.00000 53.61734
v  397.46808 960.00000 53.61734
v  397.68805 0.00000 53.57567
v  397.68805 960.00000 53.57567
v  397.90414 0.00000 53.51777
v  397.90414 960.00000 53.51777
v  398.11548 0.00000 53.44386
v  398.11548 960.00000 53.44386
v  398.32114 0.00000 53.35420
v  398.32114 960.00000 53.35420
v  398.52017 0.00000 53.24903
v  398.52017 960.00000 53.24903
v  398.71078 0.00000 53.12923
v  398.71078 960.00000 53.12923
v  398.89127 0.00000 52.99596
v  398.89127 960.00000 52.99596
v  399.06091 0.00000 52.84990
v  399.06091 960.00000 52.84990
v  399.21912 0.00000 52.69170
v  399.21912 960.00000 52.69170
v  399.36520 0.00000 52.52203
v  399.36520 960.00000 52.52203
v  399.49847 0.00000 52.34156
v  399.49847 960.00000 52.34156
v  399.61826 0.00000 52.15095
v  399.61826 960.00000 52.15095
v  399.72342 0.00000 51.95190
v  399.72342 960.00000 51.95190
v  399.81308 0.00000 51.74625
v  399.81308 960.00000 51.74625
v  399.88699 0.00000 51.53492
v  399.88699 960.00000 51.53492
v  399.94489 0.00000 51.31882
v  399.94489 960.00000 51.31882
v  399.98657 0.00000 51.09885
v  399.98657 960.00000 51.09885
v  400.01175 0.00000 50.87592
v  400.01175 960.00000 50.87592
v  400.02017 0.00000 50.65096
v  400.02017 960.00000 50.65096
# 92 vertices

vn 0.00000 0.00000 -1.00000
vn -1.00000 0.00000 -0.00000
vn -0.99930 0.00000 0.03741
vn -0.99719 0.00000 0.07487
vn -0.98878 0.00000 0.14938
vn -0.97489 0.00000 0.22269
vn -0.95560 0.00000 0.29465
vn -0.93097 0.00000 0.36509
vn -0.90106 0.00000 0.43369
vn -0.86605 0.00000 0.49996
vn -0.82618 0.00000 0.56341
vn -0.78163 0.00000 0.62374
vn -0.73289 0.00000 0.68035
vn -0.68022 0.00000 0.73301
vn -0.62370 0.00000 0.78166
vn -0.56349 0.00000 0.82612
vn -0.49997 0.00000 0.86604
vn -0.43370 0.00000 0.90106
vn -0.36511 0.00000 0.93097
vn -0.29462 0.00000 0.95561
vn -0.22259 0.00000 0.97491
vn -0.14924 0.00000 0.98880
vn -0.07490 0.00000 0.99719
vn -0.03748 0.00000 0.99930
vn 0.00000 0.00000 1.00000
vn 0.03752 0.00000 0.99930
vn 0.07492 0.00000 0.99719
vn 0.14926 0.00000 0.98880
vn 0.22261 0.00000 0.97491
vn 0.29467 0.00000 0.95560
vn 0.36513 0.00000 0.93096
vn 0.43371 0.00000 0.90105
vn 0.50000 0.00000 0.86603
vn 0.56348 0.00000 0.82613
vn 0.62367 0.00000 0.78169
vn 0.68024 0.00000 0.73299
vn 0.73299 0.00000 0.68024
vn 0.78169 0.00000 0.62366
vn 0.82613 0.00000 0.56348
vn 0.86603 0.00000 0.50000
vn 0.90105 0.00000 0.43371
vn 0.93096 0.00000 0.36513
vn 0.95560 0.00000 0.29466
vn 0.97491 0.00000 0.22261
vn 0.98880 0.00000 0.14926
vn 0.99719 0.00000 0.07492
vn 0.99930 0.00000 0.03752
vn 1.00000 0.00000 -0.00000
vn 0.00000 -1.00000 -0.00000
vn 0.00000 1.00000 -0.00000
# 50 vertex normals

g Arc003
usemtl 01___Default
s 1
f 117//64 118//64 119//64 120//64 
s 4
f 118//65 121//65 122//65 119//65 
s 2
f 121//66 123//67 124//67 122//66 
f 123//67 125//68 126//68 124//67 
f 125//68 127//69 128//69 126//68 
f 127//69 129//70 130//70 128//69 
f 129//70 131//71 132//71 130//70 
f 131//71 133//72 134//72 132//71 
f 133//72 135//73 136//73 134//72 
f 135//73 137//74 138//74 136//73 
f 137//74 139//75 140//75 138//74 
f 139//75 141//76 142//76 140//75 
f 141//76 143//77 144//77 142//76 
f 143//77 145//78 146//78 144//77 
f 145//78 147//79 148//79 146//78 
f 147//79 149//80 150//80 148//79 
f 149//80 151//81 152//81 150//80 
f 151//81 153//82 154//82 152//81 
f 153//82 155//83 156//83 154//82 
f 155//83 157//84 158//84 156//83 
f 157//84 159//85 160//85 158//84 
f 159//85 161//86 162//86 160//85 
f 161//86 163//87 164//87 162//86 
s 4
f 163//88 165//88 166//88 164//88 
s 2
f 165//89 167//90 168//90 166//89 
f 167//90 169//91 170//91 168//90 
f 169//91 171//92 172//92 170//91 
f 171//92 173//93 174//93 172//92 
f 173//93 175//94 176//94 174//93 
f 175//94 177//95 178//95 176//94 
f 177//95 179//96 180//96 178//95 
f 179//96 181//97 182//97 180//96 
f 181//97 183//98 184//98 182//97 
f 183//98 185//99 186//99 184//98 
f 185//99 187//100 188//100 186//99 
f 187//100 189//101 190//101 188//100 
f 189//101 191//102 192//102 190//101 
f 191//102 193//103 194//103 192//102 
f 193//103 195//104 196//104 194//103 
f 195//104 197//105 198//105 196//104 
f 197//105 199//106 200//106 198//105 
f 199//106 201//107 202//107 200//106 
f 201//107 203//108 204//108 202//107 
f 203//108 205//109 206//109 204//108 
f 205//109 207//110 208//110 206//109 
s 4
f 207//111 117//111 120//111 208//111 
s 16
f 117//112 123//112 121//112 118//112 
f 117//112 127//112 125//112 123//112 
f 117//112 131//112 129//112 127//112 
f 117//112 135//112 133//112 131//112 
f 117//112 139//112 137//112 135//112 
f 117//112 143//112 141//112 139//112 
f 117//112 147//112 145//112 143//112 
f 117//112 151//112 149//112 147//112 
f 117//112 155//112 153//112 151//112 
f 117//112 159//112 157//112 155//112 
f 117//112 163//112 161//112 159//112 
f 117//112 207//112 165//112 163//112 
f 207//112 205//112 167//112 165//112 
f 205//112 203//112 169//112 167//112 
f 203//112 201//112 171//112 169//112 
f 201//112 175//112 173//112 171//112 
f 201//112 179//112 177//112 175//112 
f 201//112 183//112 181//112 179//112 
f 201//112 187//112 185//112 183//112 
f 201//112 191//112 189//112 187//112 
f 201//112 195//112 193//112 191//112 
f 201//112 199//112 197//112 195//112 
f 120//113 119//113 122//113 124//113 
f 120//113 124//113 126//113 128//113 
f 120//113 128//113 130//113 132//113 
f 120//113 132//113 134//113 136//113 
f 120//113 136//113 138//113 140//113 
f 120//113 140//113 142//113 144//113 
f 120//113 144//113 146//113 148//113 
f 120//113 148//113 150//113 152//113 
f 120//113 152//113 154//113 156//113 
f 120//113 156//113 158//113 160//113 
f 120//113 160//113 162//113 164//113 
f 120//113 164//113 166//113 208//113 
f 208//113 166//113 168//113 206//113 
f 206//113 168//113 170//113 204//113 
f 204//113 170//113 172//113 202//113 
f 202//113 172//113 174//113 176//113 
f 202//113 176//113 178//113 180//113 
f 202//113 180//113 182//113 184//113 
f 202//113 184//113 186//113 188//113 
f 202//113 188//113 190//113 192//113 
f 202//113 192//113 194//113 196//113 
f 202//113 196//113 198//113 200//113 
# 90 polygons

#
# object Box002
#

v  -384.97980 0.00000 45.62930
v  -384.97980 0.00000 -71.34905
v  385.02020 0.00000 -71.34905
v  385.02020 0.00000 45.62930
v  -384.97980 20.00000 45.62930
v  385.02020 20.00000 45.62930
v  385.02020 20.00000 -71.34905
v  -384.97980 20.00000 -71.34905
# 8 vertices

vn 0.00000 -1.00000 -0.00000
vn 0.00000 1.00000 -0.00000
vn 0.00000 0.00000 1.00000
vn 1.00000 0.00000 -0.00000
vn 0.00000 0.00000 -1.00000
vn -1.00000 0.00000 -0.00000
# 6 vertex normals

vt 770.00000 0.00000 0.00000
vt 770.00000 116.97836 0.00000
vt 0.00000 116.97836 0.00000
vt 0.00000 0.00000 0.00000
vt 770.00000 20.00000 0.00000
vt 0.00000 20.00000 0.00000
vt 116.97836 0.00000 0.00000
vt 116.97836 20.00000 0.00000
# 8 texture coords

g Box002
usemtl 01___Default
s 2
f 209/9/114 210/10/114 211/11/114 212/12/114 
s 4
f 213/12/115 214/9/115 215/10/115 216/11/115 
s 8
f 209/12/116 212/9/116 214/13/116 213/14/116 
s 16
f 212/12/117 211/15/117 215/16/117 214/14/117 
s 32
f 211/12/118 210/9/118 216/13/118 215/14/118 
s 64
f 210/12/119 209/15/119 213/16/119 216/14/119 
# 6 polygons

#
# object Box003
#

v  -384.97980 178.96811 45.62930
v  -384.97980 178.96811 -71.34905
v  385.02020 178.96811 -71.34905
v  385.02020 178.96811 45.62930
v  -384.97980 185.00311 45.62930
v  385.02020 185.00311 45.62930
v  385.02020 185.00311 -71.34905
v  -384.97980 185.00311 -71.34905
# 8 vertices

vn 0.00000 -1.00000 -0.00000
vn 0.00000 1.00000 -0.00000
vn 0.00000 0.00000 1.00000
vn 1.00000 0.00000 -0.00000
vn 0.00000 0.00000 -1.00000
vn -1.00000 0.00000 -0.00000
# 6 vertex normals

vt 770.00000 0.00000 0.00000
vt 770.00000 116.97836 0.00000
vt 0.00000 116.97836 0.00000
vt 0.00000 0.00000 0.00000
vt 770.00000 6.03500 0.00000
vt 0.00000 6.03500 0.00000
vt 116.97836 0.00000 0.00000
vt 116.97836 6.03500 0.00000
# 8 texture coords

g Box003
usemtl 01___Default
s 2
f 217/17/120 218/18/120 219/19/120 220/20/120 
s 4
f 221/20/121 222/17/121 223/18/121 224/19/121 
s 8
f 217/20/122 220/17/122 222/21/122 221/22/122 
s 16
f 220/20/123 219/23/123 223/24/123 222/22/123 
s 32
f 219/20/124 218/17/124 224/21/124 223/22/124 
s 64
f 218/20/125 217/23/125 221/24/125 224/22/125 
# 6 polygons

#
# object Box004
#

v  -384.97980 378.96500 45.62930
v  -384.97980 378.96500 -71.34905
v  385.02020 378.96500 -71.34905
v  385.02020 378.96500 45.62930
v  -384.97980 385.00000 45.62930
v  385.02020 385.00000 45.62930
v  385.02020 385.00000 -71.34905
v  -384.97980 385.00000 -71.34905
# 8 vertices

vn 0.00000 -1.00000 -0.00000
vn 0.00000 1.00000 -0.00000
vn 0.00000 0.00000 1.00000
vn 1.00000 0.00000 -0.00000
vn 0.00000 0.00000 -1.00000
vn -1.00000 0.00000 -0.00000
# 6 vertex normals

vt 770.00000 0.00000 0.00000
vt 770.00000 116.97836 0.00000
vt 0.00000 116.97836 0.00000
vt 0.00000 0.00000 0.00000
vt 770.00000 6.03500 0.00000
vt 0.00000 6.03500 0.00000
vt 116.97836 0.00000 0.00000
vt 116.97836 6.03500 0.00000
# 8 texture coords

g Box004
usemtl 01___Default
s 2
f 225/25/126 226/26/126 227/27/126 228/28/126 
s 4
f 229/28/127 230/25/127 231/26/127 232/27/127 
s 8
f 225/28/128 228/25/128 230/29/128 229/30/128 
s 16
f 228/28/129 227/31/129 231/32/129 230/30/129 
s 32
f 227/28/130 226/25/130 232/29/130 231/30/130 
s 64
f 226/28/131 225/31/131 229/32/131 232/30/131 
# 6 polygons

#
# object Box005
#

v  -384.97980 578.96497 45.62930
v  -384.97980 578.96497 -71.34905
v  385.02020 578.96497 -71.34905
v  385.02020 578.96497 45.62930
v  -384.97980 584.99994 45.62930
v  385.02020 584.99994 45.62930
v  385.02020 584.99994 -71.34905
v  -384.97980 584.99994 -71.34905
# 8 vertices

vn 0.00000 -1.00000 -0.00000
vn 0.00000 1.00000 -0.00000
vn 0.00000 0.00000 1.00000
vn 1.00000 0.00000 -0.00000
vn 0.00000 0.00000 -1.00000
vn -1.00000 0.00000 -0.00000
# 6 vertex normals

vt 770.00000 0.00000 0.00000
vt 770.00000 116.97836 0.00000
vt 0.00000 116.97836 0.00000
vt 0.00000 0.00000 0.00000
vt 770.00000 6.03500 0.00000
vt 0.00000 6.03500 0.00000
vt 116.97836 0.00000 0.00000
vt 116.97836 6.03500 0.00000
# 8 texture coords

g Box005
usemtl 01___Default
s 2
f 233/33/132 234/34/132 235/35/132 236/36/132 
s 4
f 237/36/133 238/33/133 239/34/133 240/35/133 
s 8
f 233/36/134 236/33/134 238/37/134 237/38/134 
s 16
f 236/36/135 235/39/135 239/40/135 238/38/135 
s 32
f 235/36/136 234/33/136 240/37/136 239/38/136 
s 64
f 234/36/137 233/39/137 237/40/137 240/38/137 
# 6 polygons

#
# object Box006
#

v  -384.97980 778.96497 45.62930
v  -384.97980 778.96497 -71.34905
v  385.02020 778.96497 -71.34905
v  385.02020 778.96497 45.62930
v  -384.97980 784.99994 45.62930
v  385.02020 784.99994 45.62930
v  385.02020 784.99994 -71.34905
v  -384.97980 784.99994 -71.34905
# 8 vertices

vn 0.00000 -1.00000 -0.00000
vn 0.00000 1.00000 -0.00000
vn 0.00000 0.00000 1.00000
vn 1.00000 0.00000 -0.00000
vn 0.00000 0.00000 -1.00000
vn -1.00000 0.00000 -0.00000
# 6 vertex normals

vt 770.00000 0.00000 0.00000
vt 770.00000 116.97836 0.00000
vt 0.00000 116.97836 0.00000
vt 0.00000 0.00000 0.00000
vt 770.00000 6.03500 0.00000
vt 0.00000 6.03500 0.00000
vt 116.97836 0.00000 0.00000
vt 116.97836 6.03500 0.00000
# 8 texture coords

g Box006
usemtl 01___Default
s 2
f 241/41/138 242/42/138 243/43/138 244/44/138 
s 4
f 245/44/139 246/41/139 247/42/139 248/43/139 
s 8
f 241/44/140 244/41/140 246/45/140 245/46/140 
s 16
f 244/44/141 243/47/141 247/48/141 246/46/141 
s 32
f 243/44/142 242/41/142 248/45/142 247/46/142 
s 64
f 242/44/143 241/47/143 245/48/143 248/46/143 
# 6 polygons

